<svg fill="none" height="24" viewBox="0 0 24 24" width="24" xmlns="http://www.w3.org/2000/svg"><path d="m19.0714 4.92908c-1.3986-1.39856-3.1804-2.351-5.1202-2.73689s-3.9505-.18789-5.77782.56896c-1.82727.75685-3.38911 2.03855-4.48796 3.68304-1.09886 1.64447-1.68538 3.57791-1.68542 5.55571v8.3336c0 .442.17558.8658.48812 1.1784.31254.3125.73643.4881 1.17842.4881h8.33356c1.9778 0 3.9111-.5866 5.5556-1.6854 1.6444-1.0987 2.9261-2.6605 3.6831-4.4877.7568-1.8272.9549-3.8379.5691-5.7776-.3858-1.93984-1.3381-3.72168-2.7365-5.12022zm-10.89294 8.24962c-.27267.2728-.63149.4425-1.0153.4803-.38378.0379-.76883-.0586-1.08951-.2728s-.55716-.533-.66916-.902c-.11199-.3691-.09256-.7655.055-1.1218.14755-.3563.41408-.6505.75416-.8323.34009-.1819.73272-.2402 1.11099-.1649.37827.0751.71874.2792.96344.5773.24471.298.37848.6717.37852 1.0574 0 .4421-.17559.8661-.48814 1.1788zm5.00004 0c-.2727.2728-.6315.4425-1.0153.4803-.3838.0379-.7688-.0586-1.0895-.2728s-.5572-.533-.6692-.902c-.1119-.3691-.0925-.7655.055-1.1218.1476-.3563.4141-.6505.7542-.8323.3401-.1819.7327-.2402 1.111-.1649.3783.0751.7187.2792.9634.5773.2447.298.3785.6717.3786 1.0574 0 .4421-.1756.8661-.4882 1.1788zm5.0001 0c-.2727.2728-.6315.4425-1.0153.4803-.3838.0379-.7689-.0586-1.0896-.2728-.3206-.2142-.5571-.533-.6691-.902-.112-.3691-.0926-.7655.055-1.1218.1475-.3563.4141-.6505.7542-.8323.34-.1819.7327-.2402 1.1109-.1649.3783.0751.7188.2792.9635.5773.2447.298.3785.6717.3785 1.0574 0 .4421-.1756.8661-.4881 1.1788z" fill="rgb(0,0,0)"/></svg>