<svg width="20" height="20" xmlns="http://www.w3.org/2000/svg" xmlns:xlink="http://www.w3.org/1999/xlink" xml:space="preserve" overflow="hidden"><g transform="translate(-630 -350)"><path d="M636.171 362.449C636.281 362.777 636.104 363.131 635.777 363.241 634.718 363.597 634.155 364.487 633.854 365.391 633.734 365.75 633.662 366.096 633.618 366.382 633.904 366.338 634.25 366.266 634.609 366.146 635.514 365.845 636.403 365.282 636.759 364.223 636.869 363.896 637.224 363.72 637.551 363.83 637.878 363.94 638.054 364.294 637.944 364.621 637.41 366.21 636.088 366.971 635.004 367.332 634.457 367.515 633.944 367.605 633.57 367.65 633.382 367.672 633.226 367.684 633.116 367.689 633.061 367.692 633.017 367.694 632.985 367.695 632.969 367.695 632.957 367.695 632.947 367.695L632.936 367.695 632.932 367.695 632.931 367.695 632.93 367.695C632.93 367.695 632.93 367.695 632.93 367.07 632.305 367.07 632.305 367.07 632.305 367.07L632.305 367.069 632.305 367.068 632.305 367.064 632.305 367.053C632.305 367.043 632.305 367.031 632.306 367.015 632.306 366.984 632.308 366.939 632.311 366.884 632.317 366.774 632.328 366.618 632.351 366.43 632.395 366.056 632.485 365.544 632.668 364.996 633.029 363.912 633.79 362.591 635.379 362.056 635.706 361.946 636.06 362.122 636.171 362.449ZM632.93 367.07 632.305 367.07C632.305 367.416 632.585 367.695 632.93 367.695L632.93 367.07Z" fill="#002060" fill-rule="evenodd"/><path d="M646.546 353.454C645.821 353.349 644.035 353.31 642.208 355.138L637.345 360 640 362.655 644.863 357.793C646.69 355.965 646.651 354.18 646.546 353.454ZM646.727 352.217C645.73 352.073 643.506 352.072 641.324 354.254L636.019 359.558C635.902 359.676 635.836 359.835 635.836 360 635.836 360.166 635.902 360.325 636.019 360.442L639.558 363.981C639.802 364.225 640.198 364.225 640.442 363.981L645.747 358.677C647.929 356.495 647.927 354.271 647.783 353.273 647.747 353.006 647.623 352.758 647.433 352.567 647.242 352.377 646.995 352.254 646.727 352.217Z" fill="#002060" fill-rule="evenodd"/><path d="M644.422 358.492C644.767 358.492 645.047 358.772 645.047 359.117L645.047 364.164 645.047 364.173C645.042 364.501 644.909 364.815 644.675 365.045L642.153 367.575C641.993 367.735 641.792 367.848 641.573 367.903 641.353 367.958 641.123 367.952 640.906 367.887 640.69 367.821 640.495 367.698 640.343 367.53 640.191 367.362 640.088 367.157 640.044 366.935 640.043 366.935 640.044 366.935 640.044 366.935L639.387 363.662C639.319 363.323 639.539 362.994 639.877 362.926 640.216 362.858 640.545 363.078 640.613 363.416L641.269 366.691 643.797 364.155 643.797 359.117C643.797 358.772 644.077 358.492 644.422 358.492Z" fill="#002060" fill-rule="evenodd"/><path d="M635.827 354.953 635.836 354.953 640.883 354.953C641.228 354.953 641.508 355.233 641.508 355.578 641.508 355.923 641.228 356.203 640.883 356.203L635.845 356.203 635.84 356.208 635.84 356.208 633.31 358.731 633.311 358.731 636.584 359.387C636.922 359.455 637.142 359.784 637.074 360.123 637.006 360.461 636.677 360.681 636.338 360.613L633.066 359.957C633.066 359.957 633.065 359.957 633.065 359.957 632.844 359.912 632.638 359.809 632.47 359.657 632.303 359.505 632.179 359.311 632.114 359.094 632.048 358.877 632.042 358.647 632.097 358.428 632.152 358.208 632.265 358.007 632.425 357.847L632.426 357.846 632.426 357.846 634.955 355.325C635.186 355.092 635.499 354.958 635.827 354.953Z" fill="#002060" fill-rule="evenodd"/></g></svg>